<?xml version="1.0" standalone="no"?>
<!DOCTYPE svg PUBLIC "-//W3C//DTD SVG 20010904//EN"
 "http://www.w3.org/TR/2001/REC-SVG-20010904/DTD/svg10.dtd">
<svg version="1.0" xmlns="http://www.w3.org/2000/svg"
 width="728.000000pt" height="1153.000000pt" viewBox="0 0 728.000000 1153.000000"
 preserveAspectRatio="xMidYMid meet">
<metadata>
Created by potrace 1.16, written by Peter Selinger 2001-2019
</metadata>
<g transform="translate(0.000000,1153.000000) scale(0.100000,-0.100000)"
fill="#000000" stroke="none">
<path d="M3470 11250 c-713 -55 -1334 -479 -1646 -1125 -141 -293 -204 -563
-204 -877 0 -78 -4 -172 -10 -208 -24 -163 -41 -368 -50 -635 -17 -503 -59
-832 -155 -1231 -94 -389 -207 -706 -514 -1431 -344 -813 -400 -978 -469
-1363 -5 -30 -23 -107 -40 -170 -37 -136 -67 -304 -82 -449 -13 -133 -13 -429
0 -562 59 -588 299 -1159 685 -1624 88 -106 289 -310 395 -400 532 -451 1190
-730 1920 -815 157 -18 501 -24 670 -11 635 49 1221 247 1725 582 210 141 350
254 515 419 420 419 710 939 834 1493 160 711 50 1438 -317 2093 -99 178 -325
730 -493 1204 -233 657 -435 1637 -568 2755 -14 116 -32 242 -40 281 -8 40
-20 128 -25 195 -42 515 -243 954 -595 1304 -282 280 -618 461 -1004 540 -105
22 -346 47 -412 44 -14 -1 -68 -5 -120 -9z m301 -340 c305 -31 585 -135 829
-308 122 -86 317 -281 400 -400 208 -297 317 -608 345 -982 3 -47 12 -121 20
-165 8 -44 28 -201 45 -350 94 -830 216 -1517 365 -2064 125 -456 393 -1167
578 -1531 203 -403 297 -789 297 -1230 0 -253 -28 -473 -90 -705 -391 -1472
-1918 -2424 -3485 -2174 -637 101 -1206 389 -1651 833 -416 416 -677 918 -774
1488 -62 367 -46 725 49 1128 22 91 49 217 61 280 40 210 141 494 375 1055
260 623 355 878 439 1171 127 444 179 787 206 1354 6 124 20 312 30 418 11
106 20 232 20 280 0 792 444 1483 1141 1777 162 68 302 102 534 129 66 7 168
5 266 -4z"/>
<path d="M2835 8724 c-110 -63 -332 -187 -492 -276 l-293 -163 0 -75 0 -76 68
-39 c37 -21 180 -105 317 -185 418 -246 579 -338 598 -346 16 -6 18 0 15 81
l-3 87 -413 236 c-227 129 -409 239 -405 243 5 4 148 84 318 177 171 93 354
194 407 223 l98 54 0 88 c0 48 -3 87 -7 86 -5 0 -98 -52 -208 -115z"/>
<path d="M4250 8737 l0 -85 138 -79 c75 -44 260 -149 409 -234 150 -85 273
-157 273 -161 0 -10 1 -10 -432 -248 l-388 -214 0 -88 0 -89 23 12 c12 7 200
112 417 234 217 122 432 241 477 266 l83 44 0 75 0 75 -77 46 c-155 93 -892
519 -907 525 -14 5 -16 -6 -16 -79z"/>
<path d="M3174 7171 c-2 -2 -4 -30 -4 -61 l0 -57 122 -6 c66 -4 282 -7 480 -7
l358 0 0 60 c0 59 0 59 -32 65 -38 6 -918 12 -924 6z"/>
<path d="M3470 5654 c-445 -51 -791 -218 -1079 -520 -394 -413 -550 -1006
-411 -1561 76 -301 225 -561 449 -783 612 -605 1574 -648 2246 -100 173 141
326 336 429 545 74 150 117 273 149 429 19 95 22 142 22 326 -1 236 -13 319
-75 512 -47 144 -157 357 -248 478 -266 353 -633 576 -1077 656 -80 14 -338
26 -405 18z m925 -574 c181 -57 406 -232 488 -380 46 -84 102 -247 123 -358
22 -119 15 -324 -15 -442 -107 -409 -442 -690 -823 -690 -415 0 -752 300 -850
755 -16 77 -16 313 0 390 80 375 321 645 653 735 103 28 321 23 424 -10z"/>
</g>
</svg>
